<?xml version="1.0" encoding="utf-8"?>
<!-- Svg Vector Icons : http://www.onlinewebfonts.com/icon -->
<!DOCTYPE svg PUBLIC "-//W3C//DTD SVG 1.1//EN" "http://www.w3.org/Graphics/SVG/1.1/DTD/svg11.dtd">
<svg version="1.1" xmlns="http://www.w3.org/2000/svg" xmlns:xlink="http://www.w3.org/1999/xlink" x="0px" y="0px" viewBox="0 0 1000 1000" enable-background="new 0 0 1000 1000" xml:space="preserve">
<metadata> Svg Vector Icons : http://www.onlinewebfonts.com/icon </metadata>
<g><path d="M721.5,598.4l-70.3,31.5l-218,97.5l62.2-309.7l247.1-307H41.3c-17.4,0-31.3,14-31.3,31.3v773.1c0,17.4,14,31.3,31.3,31.3h731.2c17.3,0,31.3-14,31.3-31.3V494.6L721.5,598.4z M126.1,309.1h342.4c17.4,0,31.3,14,31.3,31.3s-14.1,31.3-31.3,31.3H126.1c-17.4,0-31.3-14-31.3-31.3S108.7,309.1,126.1,309.1z M408,559.8c0,17.4-14,31.3-31.3,31.3H129.2c-17.4,0-31.3-14-31.3-31.3c0-17.4,14-31.3,31.3-31.3h247.5C394,528.5,408,542.4,408,559.8z M678.8,810.5h-563c-17.4,0-31.3-14-31.3-31.3s14-31.3,31.3-31.3h563c17.4,0,31.3,14,31.3,31.3S696.1,810.5,678.8,810.5z"/><path d="M667.2,558.9l-119.8-95.7l-32.9,163.9l115.4-51.6L667.2,558.9z"/><path d="M971.1,96L932,64.7c-21.6-17.3-53.1-13.7-70.5,7.9l-30.3,38l117.5,93.9l30.3-38C996.4,144.8,992.7,113.3,971.1,96L971.1,96z"/><path d="M916.4,244.7L799,150.8L580.9,423.7l117.5,93.9L916.4,244.7z"/></g>
</svg>