<svg xmlns="http://www.w3.org/2000/svg" shape-rendering="geometricPrecision" text-rendering="geometricPrecision" image-rendering="optimizeQuality" fill-rule="evenodd" clip-rule="evenodd" viewBox="0 0 512 486.31"><path d="M98.69 41.81h53.45C155.01 18.24 174.04 0 197.13 0c22.94 0 41.87 17.98 44.93 41.32l54.12.49c2.76 0 4.98 2.22 4.98 5v55.01a4.97 4.97 0 0 1-4.98 4.99H98.75c-2.72 0-5-2.22-5-4.99V46.81a4.92 4.92 0 0 1 4.94-5zm347.57 25.98h53.01c6.97 0 12.71 5.72 12.71 12.71l.02 29.32-78.46.01.01-29.33c0-6.97 5.73-12.71 12.71-12.71zm65.63 344.48c-7.32 13.88-14.65 27.79-21.98 41.69-17.22 32.67-11.98 37.69-29.19 6.88l-27.09-48.57-.08.01v-287.6l78.43-.02v287.62l-.09-.01zm-64.88-.02 51.5.02c-4.82 9.11-9.64 18.24-14.45 27.35-11.35 21.45-7.89 24.76-19.2 4.53l-17.85-31.9zM145.14 206.54c-7.57 0-13.71-6.14-13.71-13.72 0-7.57 6.14-13.71 13.71-13.71H296.7c7.57 0 13.72 6.14 13.72 13.71 0 7.58-6.15 13.72-13.72 13.72H145.14zm0 78.48c-7.57 0-13.71-6.15-13.71-13.72s6.14-13.72 13.71-13.72H296.7c7.57 0 13.72 6.15 13.72 13.72s-6.15 13.72-13.72 13.72H145.14zm-45.67 49.46c8.47 0 15.32 6.86 15.32 15.32 0 8.47-6.85 15.33-15.32 15.33s-15.32-6.86-15.32-15.33c0-8.46 6.85-15.32 15.32-15.32zm45.67 29.04c-7.57 0-13.71-6.15-13.71-13.72s6.14-13.72 13.71-13.72h133.79c7.57 0 13.72 6.15 13.72 13.72s-6.15 13.72-13.72 13.72H145.14zM99.47 255.98c8.47 0 15.32 6.86 15.32 15.33 0 8.46-6.85 15.32-15.32 15.32s-15.32-6.86-15.32-15.32c0-8.47 6.85-15.33 15.32-15.33zm0-78.48c8.47 0 15.32 6.85 15.32 15.32s-6.85 15.32-15.32 15.32-15.32-6.85-15.32-15.32S91 177.5 99.47 177.5zM44.27 62.91h25.4v25.86h-25.4c-5.06 0-9.69 2.07-13.02 5.39-3.31 3.33-5.39 7.95-5.39 13.01v334.85c0 5.05 2.09 9.68 5.4 13.02 3.34 3.32 7.97 5.4 13.01 5.4h306.35c4.79 0 9.18-1.86 12.44-4.88l.54-.56c3.35-3.35 5.44-7.96 5.44-12.98V107.17c0-5.05-2.06-9.66-5.38-12.98-3.33-3.33-7.97-5.42-13.04-5.42h-25.39V62.91h25.39c12.16 0 23.21 5 31.22 12.99 8.06 8.05 13.07 19.14 13.07 31.27v334.85c0 12.17-5 23.25-13.02 31.27l-.89.81c-7.96 7.55-18.69 12.21-30.38 12.21H44.27c-12.12 0-23.19-5-31.22-13.01C5 465.23 0 454.17 0 442.02V107.17c0-12.14 4.99-23.2 12.99-31.22 8.07-8.05 19.14-13.04 31.28-13.04zm152.34-41.52c13.04 0 23.62 10.58 23.62 23.62 0 13.06-10.58 23.64-23.62 23.64-13.05 0-23.63-10.58-23.63-23.64 0-13.04 10.58-23.62 23.63-23.62z"/></svg>